<?xml version="1.0" encoding="utf-8"?>
<!-- Generator: Adobe Illustrator 26.0.2, SVG Export Plug-In . SVG Version: 6.00 Build 0)  -->
<svg version="1.1" id="Layer_1" xmlns="http://www.w3.org/2000/svg" xmlns:xlink="http://www.w3.org/1999/xlink" x="0px" y="0px"
	 viewBox="0 0 360 360" aria-label="riding rapids logo" style="enable-background:new 0 0 360 360;" xml:space="preserve">
<style type="text/css">
	.st0{fill:#FFFFFF;}
	.st1{fill:#010101;}
	.st2{font-family:'BrownExtraBold';}
	.st3{font-size:46.6734px;}
</style>
<g>
	<g>
		<path class="st0" d="M336.9,197.2c-101.6,0-203.3,0-305.1,0c0-43,0-86,0-129c101.6,0,203.3,0,305.1,0
			C336.9,111.1,336.9,154.2,336.9,197.2z M327.2,173.9c0-0.1,0-0.4,0-0.5c-0.1-0.4-0.4-0.8-0.6-1.2c-2.9-4.3-7.5-6.1-12.3-7.5
			c-2.2-0.6-4.7-0.9-6.4-2.1c-6.1-4.4-11.8-9.2-17.6-13.9c-5.6-4.4-11.8-7.3-19.3-6c-2.9,0.5-5.2-0.3-7-2.5c-1.3-1.6-2.6-3.1-4-4.7
			c-3.5-3.8-6.9-7.5-10.5-11.1c-1.8-1.9-3.8-2.9-6.6-0.9c-1.8,1.3-4.3,1.9-6.5,2.6c-0.9,0.3-2.6-0.1-3.1-0.8
			c-5.3-5.7-10.5-11.7-15.7-17.5c-7-8-13.9-16.2-21-24.1c-3.9-4.3-4-4-8.3-0.3c-5.2,4.7-10.5,9.2-15.7,13.9
			c-1.3,1.2-2.5,1.4-3.9,0.3c-2.5-1.9-5.2-3.8-7.5-5.8c-1.8-1.8-3.2-1.7-4.8,0c-4.4,4.7-8.8,9.3-13.2,14
			c-6.2,6.7-12.3,13.5-18.8,20.1c-5.4,5.6-8.7,5.8-15.4,1.8c-0.6-0.4-1.3-0.6-1.8-1c-1.4-1.4-2.7-1-4,0.3
			c-7.1,7.1-14.4,14.1-21.4,21.4c-1.7,1.8-3,2.3-4.9,0.5c-1.7-1.4-3.4-1.7-5.4-0.3c-1.3,0.9-3,1.4-4.4,2.3
			c-3.6,2.1-7.5,3.8-10.6,6.4c-6.1,5.2-11.8,11-17.6,16.6c-0.8,0.8-1.4,1.6-2.1,2.5C44.8,179.3,319.3,176.8,327.2,173.9z"/>
		<path class="st1" d="M327.2,173.9c-7.9,3-282.4,5.4-290.5,2.5c0.8-0.9,1.3-1.8,2.1-2.5c5.8-5.6,11.5-11.3,17.6-16.6
			c3.1-2.6,7-4.3,10.6-6.4c1.4-0.8,3.1-1.3,4.4-2.3c1.9-1.6,3.8-1.2,5.4,0.3c1.9,1.7,3.2,1.2,4.9-0.5c7-7.3,14.3-14.3,21.4-21.4
			c1.3-1.3,2.6-1.6,4-0.3c0.5,0.5,1.2,0.8,1.8,1c6.7,4,10,3.8,15.4-1.8c6.4-6.6,12.4-13.4,18.8-20.1c4.4-4.7,8.8-9.3,13.2-14
			c1.6-1.7,3-1.8,4.8,0c2.3,2.2,5.1,3.9,7.5,5.8c1.4,1.2,2.6,0.9,3.9-0.3c5.2-4.7,10.5-9.2,15.7-13.9c4.3-3.8,4.4-4,8.3,0.3
			c7.1,7.9,14,16.1,21,24.1c5.2,6,10.4,11.8,15.7,17.5c0.6,0.6,2.2,1,3.1,0.8c2.2-0.6,4.7-1.3,6.5-2.6c2.7-1.9,4.8-1,6.6,0.9
			c3.6,3.6,7,7.4,10.5,11.1c1.4,1.6,2.7,3.1,4,4.7c1.8,2.1,4.3,3,7,2.5c7.5-1.3,13.7,1.6,19.3,6c6,4.5,11.7,9.3,17.6,13.9
			c1.7,1.3,4.1,1.4,6.4,2.1c4.8,1.4,9.5,3.2,12.3,7.5c0.3,0.4,0.4,0.8,0.6,1.2C327.2,173.6,327.2,173.7,327.2,173.9z M149.7,146.4
			c4.3,0.3,7.9-3.5,12.2-1.6c-0.5,4.9-5.8,7.6-6.2,12.7c1.7-0.9,3.2-1.8,4.5-3c3-2.9,6.1-3.8,9.7-1c0.1,0.1,0.3,0,0.8-0.1
			c0-0.8,0-1.6,0-2.5c-0.3-3.6,1.7-6.2,4.7-8.2c1-0.6,2.2-1.4,3.4-1.8c1.6-0.6,1.9-1.6,1.3-3c-0.9-2.2-1.7-4.4-2.9-6.5
			c-2.5-4.8-2.1-7.4,1.9-11.3c1.6-1.6,3.4-3,4.8-4.7c1-1.4,2.1-3.2,2.1-4.9c0.1-3.6-0.6-7.3-0.5-10.9c0-1.6,1.3-3.1,2.2-4.7
			c1.2-1.8,2.9-3.2,3.8-5.1c0.6-1.3,0.5-3.1,0.8-4.7c-0.3-0.1-0.6-0.1-0.9-0.3c-6.4,6.7-12.7,13.6-19.3,20.6
			c1.7,0.9,2.7,1.6,4.4,2.5c-2.3,1.9-4.1,3.8-6.4,5.2c-3.5,2.3-6.5,4.8-7.5,9.2c-0.5,2.5-2.6,4.7-3.9,6.9c-0.5,1-1.6,2.2-1.4,3.1
			c0.5,4-1.7,6.5-4.7,8.7C151,142.5,149.6,143.9,149.7,146.4z M113,137c1.3,0.8,1.9,1.3,2.7,1.6c2.2,0.9,1.9,2.1,0.5,3.5
			c-0.6,0.6-1.2,1.2-1.8,1.8c-1.2,1.3-2.3,2.5-3.5,3.8c0.1,0.3,0.4,0.5,0.5,0.8c1.4-0.3,3-0.3,4.1-1c2.6-1.7,4.9-3.8,7.4-5.6
			c2.1-1.6,4.1-3,6.4-4.4c1.6-1,2.3-0.3,2.6,1.4c0.4,2.7-0.6,5.1-2.5,7.3c-1.8,2.2-2.7,4.7-2.3,7.5c0.6,4.9-1.2,9.1-4.8,12.4
			c-0.6,0.5-1,1.3-2.1,2.6c1.2-0.3,1.7-0.4,1.9-0.5c5.7-2.1,9.9-6.4,14.3-10.1c1.7-1.4,2.9-2.6,1.2-4.7c-0.5-0.8-0.5-1.9-0.5-3
			c0.4-4.8,0.4-9.6,1.4-14.3c0.6-2.6,0.8-4.8,0-7.4c-0.5-1.9,0-3.6,2.6-4.3c3.8-0.9,7.4-2.6,11.7-0.4c-0.6-2.2-1-3.8-1.4-5.4
			c-0.8-2.5-0.6-4.5,1.9-6.4c2.1-1.4,3.9-3.4,5.4-5.3c2.6-3.1,2.5-5.7,0.1-8.9c-1.2-1.6-2.1-1.6-3.2-0.1
			c-7.6,8.7-15.3,17.5-22.9,26.2C127.8,129.9,123.1,136.6,113,137z M209.4,135.7c-0.1,1-0.4,3-0.8,4.8c-0.4,1.9,0.6,2.2,2.3,2.1
			c2.2-0.1,4.4,0,7.1,0c-0.6,1.6-0.8,2.7-1.4,3.8c-1.8,2.7-3.8,5.4-5.6,8.2c-0.9,1.4-2.2,1.9-3.9,1.9c-7.5,0.3-13.5,4.3-19.4,8.2
			c2.7-0.3,5.4-0.8,7.9-1.8c2.6-1.2,4.5-0.9,6.4,1.4c1.3,1.8,3.1,1.9,5.3,1c3.8-1.4,7.6-2.6,11.5-3.1c2.3-0.4,3.1-0.9,2.9-3
			c-0.1-0.8-0.1-1.6-0.3-2.2c-0.6-4.9-0.5-5.2,4.4-7.3c0.6-0.3,1.3-0.5,1.9-0.8c4.7-1.7,6.9-4.3,6.9-7.6c0-2.7,0.8-3.4,3.6-3.5
			c1.7,0,3.4,0,4.7,0c0.6-3.8,1.3-6.9,1.9-10.4c-0.9,0.3-1.9,0.3-2.7,0.6c-2.6,1.3-5.2,2.7-7.8,4.1c-4,2.1-8,4.1-12.7,1.2
			c-1-0.6-2.9-0.1-4.3,0.1C214.8,134.2,212.5,135,209.4,135.7z M287,151.4c-0.5-0.4-1.2-1-1.8-1.6c-4.8-3.5-10.2-2.7-15.7-2.6
			c-0.5,0-1,0.5-1.4,0.9c-1.6,1.3-3,2.9-4.7,4c-1.6,1-2.7,2.1-2.3,4c0.4,1.9-0.8,2.9-2.3,3.8c-1.8,0.9-3.6,1.8-5.4,3
			c-0.8,0.5-1.4,1.4-2.1,2.1c0.3,0.4,0.5,0.6,0.8,1c2.5-1.2,5.1-2.1,7.3-3.5c2.9-1.9,5.8-3.5,9.5-4c0.8-0.1,1.4-0.9,2.2-1.4
			c1.8-1.4,3.5-3.5,5.6-4.1C279.6,151.8,283.3,151.9,287,151.4z M86.4,163.1c0.1,0.1,0.4,0.1,0.5,0.3c2.5-1.9,5.1-3.9,7.5-5.8
			c2.5-1.9,4.8-4,6-7c-5.7-2.2-16.9,4-16.5,9.1c1.4-0.3,3-0.5,5.1-1C87.9,160.4,87.1,161.7,86.4,163.1z M105.5,130.4
			c-4.7,4.5-10.4,7.8-12.7,14c1.9-0.4,3.5-0.9,5.1-1.2c1.7-0.1,3.4,0,5.3,0c-0.1-1-0.1-1.8-0.3-2.7c0-0.8-0.3-1.7-0.1-2.5
			c0.1-0.6,0.4-1.6,0.9-1.8C106.3,135,106.8,133.9,105.5,130.4z M252.9,157c-7.6-1.6-16.6,6.6-15.9,11.9
			C242.4,164.9,247.5,161,252.9,157z M57.7,161.8c0.9,0.1,1.2,0.1,1.4,0.1c3.4-1.4,6.2-4.1,10.4-3.9c0.5,0,1.2-1.4,1.7-2.2
			c-0.8-0.4-1.6-1.2-2.2-1.2C63.6,154.8,60.8,158.2,57.7,161.8z"/>
		<path class="st0" d="M149.7,146.4c0-2.5,1.3-4,3-5.2c3-2.2,5.2-4.7,4.7-8.7c-0.1-0.9,0.8-2.1,1.4-3.1c1.3-2.3,3.4-4.4,3.9-6.9
			c1-4.4,4-6.9,7.5-9.2c2.2-1.4,4-3.2,6.4-5.2c-1.7-1-2.7-1.6-4.4-2.5c6.6-7,13-13.7,19.3-20.6c0.3,0.1,0.6,0.1,0.9,0.3
			c-0.3,1.6-0.1,3.4-0.8,4.7c-0.9,1.8-2.7,3.2-3.8,5.1c-0.9,1.4-2.2,3-2.2,4.7c-0.1,3.6,0.6,7.3,0.5,10.9c0,1.7-1,3.5-2.1,4.9
			c-1.3,1.7-3.1,3.1-4.8,4.7c-4,3.9-4.4,6.5-1.9,11.3c1,2.1,1.9,4.3,2.9,6.5c0.6,1.4,0.3,2.3-1.3,3c-1.2,0.5-2.3,1.2-3.4,1.8
			c-3,1.9-4.9,4.5-4.7,8.2c0,0.8,0,1.7,0,2.5c-0.4,0-0.6,0.1-0.8,0.1c-3.6-2.7-6.7-1.8-9.7,1c-1.3,1.2-2.9,2.2-4.5,3
			c0.4-5.1,5.7-7.8,6.2-12.7C157.5,142.9,153.9,146.6,149.7,146.4z"/>
		<path class="st0" d="M113,137c10-0.5,14.8-7.1,20-13c7.8-8.7,15.3-17.4,22.9-26.2c1.2-1.4,2.2-1.4,3.2,0.1
			c2.3,3.2,2.5,5.8-0.1,8.9c-1.7,1.9-3.4,3.9-5.4,5.3c-2.6,1.8-2.6,3.9-1.9,6.4c0.5,1.6,0.9,3.2,1.4,5.4c-4.3-2.3-7.9-0.6-11.7,0.4
			c-2.7,0.6-3.1,2.3-2.6,4.3c0.6,2.6,0.5,4.8,0,7.4c-1,4.7-1,9.5-1.4,14.3c-0.1,1-0.1,2.2,0.5,3c1.7,2.2,0.4,3.4-1.2,4.7
			c-4.4,3.8-8.6,8-14.3,10.1c-0.4,0.1-0.8,0.3-1.9,0.5c1-1.3,1.4-1.9,2.1-2.6c3.6-3.5,5.3-7.6,4.8-12.4c-0.4-2.9,0.5-5.3,2.3-7.5
			c1.7-2.1,2.7-4.4,2.5-7.3c-0.3-1.7-1-2.3-2.6-1.4c-2.2,1.3-4.3,2.9-6.4,4.4c-2.5,1.8-4.8,3.9-7.4,5.6c-1.2,0.8-2.7,0.6-4.1,1
			c-0.1-0.3-0.4-0.5-0.5-0.8c1.2-1.3,2.3-2.5,3.5-3.8c0.6-0.6,1.2-1.3,1.8-1.8c1.4-1.4,1.7-2.6-0.5-3.5
			C115,138.3,114.3,137.8,113,137z"/>
		<path class="st0" d="M209.4,135.7c3.1-0.8,5.4-1.6,7.8-2.1c1.4-0.3,3.4-0.8,4.3-0.1c4.7,3,8.7,0.9,12.7-1.2
			c2.6-1.3,5.2-2.9,7.8-4.1c0.9-0.4,1.8-0.5,2.7-0.6c-0.6,3.5-1.3,6.6-1.9,10.4c-1.3,0-3,0-4.7,0c-3,0.1-3.6,0.8-3.6,3.5
			c0,3.4-2.3,6-6.9,7.6c-0.6,0.3-1.3,0.5-1.9,0.8c-4.9,1.9-5.1,2.2-4.4,7.3c0.1,0.8,0.1,1.6,0.3,2.2c0.3,2.1-0.5,2.7-2.9,3
			c-3.9,0.6-7.8,1.8-11.5,3.1c-2.3,0.9-4,0.8-5.3-1c-1.8-2.3-3.8-2.5-6.4-1.4c-2.5,1-5.2,1.6-7.9,1.8c6-4,11.8-8,19.4-8.2
			c1.8,0,3-0.5,3.9-1.9c1.8-2.7,3.8-5.4,5.6-8.2c0.6-0.9,0.9-2.1,1.4-3.8c-2.7,0-4.9-0.1-7.1,0c-1.8,0.1-2.7-0.1-2.3-2.1
			C209,138.7,209.2,136.9,209.4,135.7z"/>
		<path class="st0" d="M287,151.4c-3.8,0.4-7.4,0.4-10.8,1.4c-2.1,0.6-3.8,2.7-5.6,4.1c-0.6,0.5-1.4,1.3-2.2,1.4
			c-3.5,0.5-6.5,1.9-9.5,4c-2.2,1.4-4.8,2.3-7.3,3.5c-0.3-0.4-0.5-0.6-0.8-1c0.6-0.6,1.2-1.6,2.1-2.1c1.7-1,3.6-1.9,5.4-3
			c1.6-0.8,2.7-1.8,2.3-3.8c-0.4-1.9,0.8-3,2.3-4c1.7-1.2,3.1-2.7,4.7-4c0.4-0.4,0.9-0.9,1.4-0.9c5.4-0.1,10.9-0.9,15.7,2.6
			C285.8,150.4,286.5,151,287,151.4z"/>
		<path class="st0" d="M86.4,163.1c0.8-1.3,1.6-2.7,2.6-4.5c-2.2,0.4-3.6,0.8-5.1,1c-0.4-4.9,10.8-11.1,16.5-9.1c-1,3-3.5,5.1-6,7
			c-2.5,1.9-4.9,3.9-7.5,5.8C86.7,163.2,86.6,163.1,86.4,163.1z"/>
		<path class="st0" d="M105.5,130.4c1.3,3.5,0.9,4.5-1.7,5.7c-0.5,0.3-0.8,1.2-0.9,1.8c-0.1,0.8,0,1.7,0.1,2.5
			c0,0.8,0.1,1.7,0.3,2.7c-1.8,0-3.6-0.1-5.3,0c-1.6,0.1-3.1,0.6-5.1,1.2C95.1,138.2,100.8,135,105.5,130.4z"/>
		<path class="st0" d="M252.9,157c-5.4,4-10.5,7.9-15.9,11.9C236.3,163.6,245.4,155.4,252.9,157z"/>
		<path class="st0" d="M57.7,161.8c3.1-3.6,6-7,11.1-7.1c0.8,0,1.6,0.8,2.2,1.2c-0.5,0.8-1.2,2.3-1.7,2.2c-4.1-0.3-7,2.5-10.4,3.9
			C58.8,162.1,58.6,161.9,57.7,161.8z"/>
	</g>
</g>
<polygon class="st0" points="250.8,123.3 233.2,137 226.3,153.2 220.4,167.5 215.4,173.9 211.8,187.3 298,192.5 343.7,177.4 
	277.8,119.3 "/>
<polygon class="st0" points="99,125.8 118,140.5 124.6,156 127.5,161.3 150,181 24.7,181 49.4,144.4 "/>
<polygon class="st0" points="201.7,177.4 223,161.3 232.9,181 "/>
<g>
	<g>
		<path class="st1" d="M278.7,251.8c0.1,1.6-0.4,2.9-1.2,4.1c-2.3,3.6-4.9,7.1-6.9,10.9s-6.5,4.5-9.6,3.5c-3.2-1-5.6-4.9-4.9-8.7
			c0.3-1.8-0.4-2.6-1.8-3.5c-9.7-6.2-19.6-12.6-29.3-18.8c-10.1-6.5-20.2-12.8-30.2-19.3c-4.5-3-9.1-6-13.7-8.9
			c-14-8.8-28-17.6-41.9-26.4c-5.8-3.6-11.5-7.4-17.2-11.1c-1-0.6-1.9-0.9-3.2-0.8c-5.8,0.9-11.7,1.3-17.6,0.8
			c-6.5-0.5-12.3-2.7-17.8-6.2c-7.1-4.7-14.4-9.2-21.7-13.7c-5.8-3.6-11.7-7.3-17.4-11.1c-3.9-2.6-4.7-8-2.2-12.1
			c3.6-6,7.3-11.9,11.3-17.6c2.1-3,3.5-6.5,6.4-8.9c2.7-2.3,6.5-2.9,9.5-1c6.5,3.9,13,8,19.3,12.1c7,4.4,13.9,8.9,20.9,13.4
			c6.1,4,10.8,9.2,13.9,15.9c2.1,4.5,4,9.1,5.3,13.9c0.3,0.9,0.8,1.4,1.6,1.9c7.6,4.9,15.3,9.9,23.1,14.8c8.9,5.8,18,11.7,27.1,17.2
			c6.2,3.9,11.9,8.4,18.3,12.1c11.8,6.7,22.9,14.7,34.5,21.9c10.4,6.5,20.5,13,30.7,19.6c1.3,0.8,2.1,0.4,3.1-0.4
			c3.9-2.6,8.6-1.7,11.1,2.3C278.5,248.8,278.8,250.2,278.7,251.8z M112.8,168.2c-4-3.4-8.4-5.4-12.3-8
			c-9.3-6.4-19.1-12.3-28.7-18.4c-4-2.6-5.2-7.4-2.7-11.4c2.1-3.4,7.4-4.4,11-2.2c1.3,0.8,2.6,1.6,3.9,2.5
			c8.2,5.3,16.5,10.5,24.6,15.9c3.2,2.2,6.7,4.3,10.2,6.4c0.9,0.5,1.7,1.3,3,1.7c-1.6-3.9-3.1-7.4-4.9-10.8
			c-2.7-5.2-6.9-8.7-11.5-11.8c-5.6-3.6-11.3-7.3-16.9-10.8c-6.7-4.4-13.6-8.7-20.4-13.1c-2.3-1.6-4.3-1-5.8,1.3
			c-0.8,1.2-1.6,2.2-2.2,3.4c-4.3,6.7-8.6,13.4-12.8,20c-1.7,2.6-1.3,4.4,1.3,6.2c3.2,2.1,6.6,4.1,9.9,6.2
			c6.6,4.3,13.1,8.6,19.7,12.7c3.9,2.5,7.6,5.1,11.7,7.1c4.3,2.3,8.9,3.4,13.9,3.5C106.3,168.5,109.4,168.5,112.8,168.2z
			 M75.9,132.1c-1.2,0.1-2.2,0.6-2.5,1.8c-0.4,1.3,0.1,2.5,1.2,3.1c2.9,1.8,5.8,3.6,8.8,5.6c9.9,6.2,19.6,12.7,29.4,18.8
			c13.7,8.6,27.4,17.1,40.8,26.2c10,6.6,20.2,12.8,30.2,19.4c9.7,6.5,19.8,12.6,29.7,18.8c14.3,9.1,28.5,18.3,42.8,27.4
			c3.1,1.9,3.1,2.1,4.8-1.2c0-0.1,0.1-0.3,0.1-0.3c0.5-0.9,0.3-1.4-0.5-1.9c-2.1-1.3-4.1-2.6-6.2-3.9c-14.8-9.3-29.6-18.7-44.2-28.1
			c-4.8-3.1-9.7-6-14.1-9.5c-3.2-2.6-7-4.4-10.5-6.6c-7.6-4.7-15.2-9.7-22.7-14.5c-9.6-6.1-19.3-12.2-28.9-18.3
			c-13.4-8.6-26.7-17.1-40.1-25.7c-5.4-3.5-11-7-16.5-10.5C77.1,132.5,76.6,132.1,75.9,132.1z M263.7,265.5c0.8-0.1,1.8-0.3,2.3-1.3
			l0.1-0.1c2.3-3.6,4.7-7.1,6.9-10.8c0.8-1.3,0.6-2.7-0.6-3.8c-1.3-0.9-2.6-0.8-3.4,0.5c-2.6,3.9-5.2,7.8-7.5,11.8
			C260.6,263.4,261.9,265.5,263.7,265.5z"/>
	</g>
</g>
<g>
	<g>
		<path class="st1" d="M243.6,173.9c-4.1,0-8.4-0.4-12.6-1c-0.9-0.1-1.7,0-2.6,0.5c-13,8.3-25.9,16.7-39,24.9
			c-9.1,5.7-18.3,11.1-27.1,17.1c-9.3,6.2-18.9,12.2-28.3,18.3c-9.2,6-18.5,11.9-27.7,17.9c-3.8,2.5-7.5,4.9-11.4,7.3
			c-1,0.6-1.3,1.3-1,2.6c0.6,3.4-0.5,6.2-3.4,8.2c-2.9,1.9-5.7,1.6-8.6,0c-0.9-0.4-1.4-1.2-1.9-1.9c-2.6-4-5.1-8-7.6-11.9
			c-1.9-3.1-1.4-7.1,1.3-9.9c2.6-2.5,6.6-2.9,9.6-0.8c1.4,1,2.6,0.9,4,0c14.5-9.3,29-18.5,43.4-27.7c5.7-3.6,11.3-7.6,17.1-11.1
			c15.6-9.3,30.3-19.7,45.8-29.2c8.8-5.4,17.5-11.3,26.2-16.9c1-0.6,1.6-1.6,1.9-2.7c2.1-6.6,4.7-13.1,8.4-19.1
			c3.6-5.6,8.7-9.2,14.1-12.6c10.4-6.6,20.9-13.2,31.2-19.8c1.4-0.9,3-1.8,4.4-2.9c4.8-3.1,10.2-0.9,13,3.6
			c3.5,5.8,7.1,11.5,10.9,17.1c1.6,2.3,3.2,4.7,4.5,7.3c2.1,4.1,0.9,9.1-3.1,11.7c-11.3,7.3-22.6,14.5-34,21.7
			c-3.9,2.5-7.6,5.3-12.2,6.9c-2.6,0.9-5.2,1.6-7.8,1.9C248.9,173.9,246.2,173.9,243.6,173.9z M237.4,167.8c0,0.3,0.1,0.5,0.1,0.6
			c3.1,0,6.1,0.1,9.2,0c5.6-0.1,10.9-1.6,15.7-4.5c4.7-3,9.5-6,14.1-8.9c8.4-5.3,16.7-10.8,25.2-16.2c2.7-1.8,3.1-3.6,1.4-6.2
			c-5.1-7.8-10.1-15.6-15-23.3c-1.6-2.3-3.4-2.9-5.7-1.4c-3.1,1.9-6.1,3.9-9.2,5.8c-7.6,4.9-15.4,9.7-22.9,14.8
			c-5.1,3.2-10.4,6.1-14.1,11c-1.2,1.6-2.1,3.1-3,4.8c-1.9,3.1-3.4,6.5-4.4,10.1c0.4-0.1,0.5-0.1,0.6-0.1c4.7-3.2,9.6-6.1,14.3-9.3
			c3-2.1,6.2-4,9.3-6c5.7-3.6,11.4-7.4,17.2-10.9c3.6-2.3,8.9-1.2,11,2.3c2.3,4,1.2,8.8-2.7,11.3c-5.1,3.2-10.1,6.5-15.2,9.7
			c-5.6,3.6-11.3,7.3-16.7,10.9C243.5,164.3,240.3,166,237.4,167.8z M276.8,134.3c0-1.6-2.2-2.7-4.1-1.6
			c-10.8,6.9-21.5,13.7-32.3,20.6c-8.9,5.8-17.9,11.7-27,17.4c-12.6,7.9-25.2,15.7-37.6,23.9c-8.3,5.4-17.1,10-24.9,16.1
			c-4.1,3.1-8.8,5.6-13.1,8.4c-7.5,4.9-15.2,9.6-22.7,14.5c-8.6,5.6-17.2,11-25.8,16.3c-0.9,0.6-1,1.2-0.5,2.1
			c0.3,0.5,0.6,1,0.9,1.6c0.8,1.4,1.6,1.4,2.9,0.5c11-7.1,22-14.1,33.1-21.3c17.8-11.3,35.5-22.6,53.3-34c8-5.2,16.1-10.4,24.1-15.7
			c17.9-11.7,36-22.8,53.9-34.4c6-3.8,11.9-7.5,17.9-11.4C276,136.8,276.6,136,276.8,134.3z M88.8,262.8c0-0.3,0-0.6-0.3-1
			c-2.5-3.9-4.9-7.9-7.6-11.8c-0.6-1-1.8-1.3-3.1-0.5s-1.8,1.9-1.2,3.2c2.2,4.1,4.8,8,7.5,11.8c0.6,0.9,1.9,1.2,3,0.8
			C88.1,265,88.8,264.2,88.8,262.8z"/>
	</g>
</g>
<rect x="68.2" y="177.4" class="st0" width="232.6" height="44"/>
<text transform="matrix(1 0 0 1 54.1769 216.0717)" class="st1 st2 st3">RIDING RAPIDS</text>
</svg>
