<?xml version="1.0" encoding="utf-8"?>
<!-- Generator: Adobe Illustrator 26.1.0, SVG Export Plug-In . SVG Version: 6.00 Build 0)  -->
<svg version="1.1" id="Layer_1" xmlns="http://www.w3.org/2000/svg" xmlns:xlink="http://www.w3.org/1999/xlink" x="0px" y="0px"
	 viewBox="0 0 150 150" style="enable-background:new 0 0 150 150;" xml:space="preserve">
<style type="text/css">
	.st0{fill:#071E25;}
	.st1{fill:#FDFEFE;}
</style>
<rect y="0" class="st0" width="150" height="150"/>
<image style="display:none;overflow:visible;" width="758" height="502" xlink:href="../../../../Applications/MAMP/htdocs/ridingrapids/wp-content/themes/riding-rapids/images/rr-white-logo.png"  transform="matrix(0.2277 0 0 0.2277 -11.2958 20.7398)">
</image>
<g>
	<path class="st1" d="M42.3,63.9H29.2V93H12.9V13.4h29.6c9.4,0,16.6,2.1,21.7,6.3c5.1,4.2,7.6,10.1,7.6,17.8c0,5.4-1.2,10-3.5,13.6
		c-2.3,3.6-5.9,6.5-10.7,8.7l17.2,32.5V93H57.2L42.3,63.9z M29.2,50.6h13.2c4.1,0,7.3-1,9.6-3.1c2.3-2.1,3.4-5,3.4-8.7
		c0-3.8-1.1-6.7-3.2-8.9c-2.1-2.1-5.4-3.2-9.8-3.2H29.2V50.6z"/>
</g>
<g>
	<path class="st1" d="M103.8,105.8H90.8v29.1H74.4V55.3h29.6c9.4,0,16.6,2.1,21.7,6.3c5.1,4.2,7.6,10.1,7.6,17.8
		c0,5.4-1.2,10-3.5,13.6c-2.3,3.6-5.9,6.5-10.7,8.7l17.2,32.5v0.8h-17.6L103.8,105.8z M90.8,92.5H104c4.1,0,7.3-1,9.6-3.1
		c2.3-2.1,3.4-5,3.4-8.7c0-3.8-1.1-6.7-3.2-8.9c-2.1-2.1-5.4-3.2-9.8-3.2H90.8V92.5z"/>
</g>
</svg>
